{"title":"Prisoners.2013.CAM.x264.AC3 UNiQUE","uid":8975472,"size":1929925518,"categoryP":"video","categoryS":"movies","magnet":"?xt=urn:btih:78379493d9999c6077ab4f6f942dd0c0c40b89d6&amp;dn=Prisoners.2013.CAM.x264.AC3+UNiQUE&amp;tr=udp%3A%2F%2Ftracker.openbittorrent.com%3A80&amp;tr=udp%3A%2F%2Fopen.demonii.com%3A1337&amp;tr=udp%3A%2F%2Ftracker.coppersurfer.tk%3A6969&amp;tr=udp%3A%2F%2Fexodus.desync.com%3A6969","seeders":21,"leechers":0,"uploader":"Acesn8s","files":-1,"time":1380421594,"description":"Prisoners.2013.CAM.x264.AC3 UNiQUE\n\nGeneral:\n\nFormat                                   : Matroska\nFormat version                           : Version 2\nFile size                                : 1.80 GiB\nDuration                                 : 2h 25mn\nOverall bit rate mode                    : Variable\nOverall bit rate                         : 1 765 Kbps\nEncoded date                             : UTC 2013-09-28 22:39:47\nWriting application                      : mkvmerge v6.4.1 ('Omega Point') built on Sep 16 2013 22:05:10\nWriting library                          : libebml v1.3.0 + libmatroska v1.4.1\n\n==================================================================================\n\nID                                       : 1\nFormat                                   : AVC\nFormat/Info                              : Advanced Video Codec\nFormat profile                           : &lt;a class=&quot;__cf_email__&quot; href=&quot;/cdn-cgi/l/email-protection&quot; data-cfemail=&quot;3971505e5179750d1708&quot;&gt;[email&amp;#160;protected]&lt;/a&gt;&lt;script cf-hash='f9e31' type=&quot;text/javascript&quot;&gt;\n/* &lt;![CDATA[ */!function(){try{var t=&quot;currentScript&quot;in document?document.currentScript:function(){for(var t=document.getElementsByTagName(&quot;script&quot;),e=t.length;e--;)if(t[e].getAttribute(&quot;cf-hash&quot;))return t[e]}();if(t&amp;&amp;t.previousSibling){var e,r,n,i,c=t.previousSibling,a=c.getAttribute(&quot;data-cfemail&quot;);if(a){for(e=&quot;&quot;,r=parseInt(a.substr(0,2),16),n=2;a.length-n;n+=2)i=parseInt(a.substr(n,2),16)^r,e+=String.fromCharCode(i);e=document.createTextNode(e),c.parentNode.replaceChild(e,c)}}}catch(u){}}();/* ]]&gt; */&lt;/script&gt;\nFormat settings, CABAC                   : Yes\nFormat settings, ReFrames                : 3 frames\nCodec ID                                 : V_MPEG4/ISO/AVC\nDuration                                 : 2h 25mn\nBit rate mode                            : Variable\nBit rate                                 : 1 571 Kbps\nMaximum bit rate                         : 40.0 Mbps\nWidth                                    : 720 pixels\nHeight                                   : 400 pixels\nDisplay aspect ratio                     : 16:9\nFrame rate                               : 29.970 fps\nColor space                              : YUV\nChroma subsampling                       : 4:2:0\nBit depth                                : 8 bits\nScan type                                : Progressive\nBits/(Pixel*Frame)                       : 0.182\nStream size                              : 1.57 GiB (87%)\nWriting library                          : x264 core 138 r2358 9e941d1\nDefault                                  : Yes\nForced                                   : No\n\n==================================================================================\n\nID                                       : 2\nFormat                                   : AC-3\nFormat/Info                              : Audio Coding 3\nMode extension                           : CM (complete main)\nFormat settings, Endianness              : Big\nCodec ID                                 : A_AC3\nDuration                                 : 2h 25mn\nBit rate mode                            : Constant\nBit rate                                 : 192 Kbps\nChannel(s)                               : 2 channels\nChannel positions                        : Front: L R\nSampling rate                            : 48.0 KHz\nBit depth                                : 16 bits\nCompression mode                         : Lossy\nStream size                              : 200 MiB (11%)\nLanguage                                 : English\nDefault                                  : Yes\nForced                                   : No\n\n==================================================================================\n\nIMDB:\n &lt;a href=&quot;\nhttp://www.imdb.com/title/tt1392214/&quot; rel=&quot;nofollow&quot; target=&quot;_NEW&quot;&gt;\nhttp://www.imdb.com/title/tt1392214/&lt;/a&gt;\n\n\nPlot:\n\nWhen Keller Dover's daughter and her friend go missing, he takes matters into his own hands as the police pursue multiple leads and the pressure mounts. But just how far will this desperate father go to protect his family?\n\n==================================================================================\n\nNotes:\n\ngot nice cam from blacktop just resized ran thru some filters blah blah blah came out nice. overall very watchable.\n\n==================================================================================\n\nScreens: \n &lt;a href=&quot;\nhttp://imagecurl.org/images/24777378296909806581.png&quot; rel=&quot;nofollow&quot; target=&quot;_NEW&quot;&gt;\nhttp://imagecurl.org/images/24777378296909806581.png&lt;/a&gt;\n &lt;a href=&quot;\nhttp://imagecurl.org/images/43622081112834519865.png&quot; rel=&quot;nofollow&quot; target=&quot;_NEW&quot;&gt;\nhttp://imagecurl.org/images/43622081112834519865.png&lt;/a&gt;\n &lt;a href=&quot;\nhttp://imagecurl.org/images/44469805743146819519.png&quot; rel=&quot;nofollow&quot; target=&quot;_NEW&quot;&gt;\nhttp://imagecurl.org/images/44469805743146819519.png&lt;/a&gt;\n &lt;a href=&quot;\nhttp://imagecurl.org/images/08671168130991308227.png&quot; rel=&quot;nofollow&quot; target=&quot;_NEW&quot;&gt;\nhttp://imagecurl.org/images/08671168130991308227.png&lt;/a&gt;","torrent":{"xt":"urn:btih:78379493d9999c6077ab4f6f942dd0c0c40b89d6","amp;dn":"Prisoners.2013.CAM.x264.AC3+UNiQUE","amp;tr":["udp%3A%2F%2Ftracker.openbittorrent.com%3A80","udp%3A%2F%2Fopen.demonii.com%3A1337","udp%3A%2F%2Ftracker.coppersurfer.tk%3A6969","udp%3A%2F%2Fexodus.desync.com%3A6969"],"infoHash":"78379493d9999c6077ab4f6f942dd0c0c40b89d6","infoHashBuffer":{"type":"Buffer","data":[120,55,148,147,217,153,156,96,119,171,79,111,148,45,208,192,196,11,137,214]},"announce":[],"urlList":[]}}